# AST/ASF file generated using VICON BodyLanguage
# -----------------------------------------------
:version 1.10
:name VICON
:units
  mass 1.0
  length 0.45
  angle deg
:documentation
   .ast/.asf automatically generated from VICON data using
   VICON BodyBuilder and BodyLanguage model FoxedUp or BRILLIANT.MOD
:root
   order TX TY TZ RX RY RZ
   axis XYZ
   position 0 0 0  
   orientation 0 0 0 
:bonedata
  begin
     id 1 
     name lhipjoint
     direction 0.722297 -0.617336 0.311742 
     length 2.6635 
     axis 0 0 0  XYZ
  end
  begin
     id 2 
     name lfemur
     direction 0.34202 -0.939693 0  
     length 7.39349  
     axis 0 0 20  XYZ
    dof rx ry rz
    limits (-160.0 20.0)
           (-70.0 70.0)
           (-60.0 70.0)
  end
  begin
     id 3 
     name ltibia
     direction 0.34202 -0.939693 0   
     length 7.36294   
     axis 0 0 20   XYZ
    dof rx
    limits (-10.0 170.0)
  end
  begin
     id 4 
     name lfoot
     direction 0.104879 -0.288152 0.951824   
     length 2.16981   
     axis -90 7.62852e-016 20   XYZ
    dof rx rz
    limits (-45.0 90.0)
           (-70.0 20.0)
  end
  begin
     id 5 
     name ltoes
     direction 1.53586e-011 -4.21895e-011 1   
     length 1.08218   
     axis -90 7.62852e-016 20   XYZ
    dof rx
    limits (-90.0 20.0)
  end
  begin
     id 6 
     name rhipjoint
     direction -0.75102 -0.589393 0.297631   
     length 2.78977  
     axis 0 0 0  XYZ 
  end
  begin
     id 7 
     name rfemur
     direction -0.34202 -0.939693 0   
     length 7.46076   
     axis 0 0 -20   XYZ
    dof rx ry rz
    limits (-160.0 20.0)
           (-70.0 70.0)
           (-70.0 60.0)
  end
  begin
     id 8 
     name rtibia
     direction -0.34202 -0.939693 0   
     length 7.31726   
     axis 0 0 -20   XYZ
    dof rx
    limits (-10.0 170.0)
 end
 begin
     id 9 
     name rfoot
     direction -0.107991 -0.296704 0.948844   
     length 2.09388  
     axis -90 -7.62852e-016 -20   XYZ
    dof rx rz
    limits (-45.0 90.0)
           (-20.0 70.0)
  end
  begin
     id 10 
     name rtoes
     direction -1.53559e-011 -4.21911e-011 1   
     length 1.04433   
     axis -90 -7.62852e-016 -20   XYZ
    dof rx
    limits (-90.0 20.0)
  end
  begin
     id 11 
     name lowerback
     direction 0.0165164 0.98272 0.184358   
     length 1.71896   
     axis 0 0 0   XYZ
    dof rx ry rz
    limits (-20.0 45.0)
           (-30.0 30.0)
           (-30.0 30.0)
  end
  begin
     id 12 
     name upperback
     direction -0.00887249 0.992297 0.123566   
     length 1.71504   
     axis 0 0 0   XYZ
    dof rx ry rz
    limits (-20.0 45.0)
           (-30.0 30.0)
           (-30.0 30.0)
  end
  begin
     id 13 
     name thorax
     direction -0.0157026 0.998908 0.0440032   
     length 1.77022   
     axis 0 0 0   XYZ
    dof rx ry rz
    limits (-20.0 45.0)
           (-30.0 30.0)
           (-30.0 30.0)
  end
  begin
     id 14 
     name lowerneck
     direction -0.0238856 0.998137 0.0561411   
     length 1.89341   
     axis 0 0 0   XYZ
    dof rx ry rz
    limits (-20.0 45.0)
           (-30.0 30.0)
           (-30.0 30.0)
  end
  begin
     id 15 
     name upperneck
     direction 0.0276574 0.952253 -0.304056   
     length 1.86999   
     axis 0 0 0   XYZ
    dof rx ry rz
    limits (-20.0 45.0)
           (-30.0 30.0)
           (-30.0 30.0)
  end
  begin
     id 16
     name head
     direction 0.00800083 0.994258 -0.106712  
     length 1.91492  
     axis 0 0 0   XYZ
    dof rx ry rz
    limits (-20.0 45.0)
           (-30.0 30.0)
           (-30.0 30.0)
  end
  begin
     id 17 
     name lclavicle
     direction 0.97203 0.225407 0.06595  
     length 3.34889  
     axis 0 0 0   XYZ
    dof ry rz
    limits (-20.0 10.0)
           (0.0 20.0)
  end
  begin
     id 18 
     name lhumerus
     direction 1 -4.48973e-011 2.20267e-027   
     length 4.85645   
     axis 180 -30 -90   XYZ
    dof rx ry rz
    limits (-60.0 90.0)
           (-90.0 90.0)
           (-90.0 90.0)
  end
  begin
     id 19
     name lradius
     direction 1 -4.4897e-011 4.60472e-027   
     length 2.79874   
     axis 180 -30 -90   XYZ
    dof rx
    limits (-10.0 170.0)
  end
  begin
     id 20
     name lwrist
     direction 1 -4.48952e-011 1.14928e-026   
     length 1.39937   
     axis -6.29373e-015 90 90   XYZ
    dof ry
    limits (-180.0 0.0)
 end
  begin
     id 21 
     name lhand
     direction 1 -4.48967e-011 2.29886e-026   
     length 0.573398   
     axis -1.46689e-014 90 90   XYZ
    dof rx rz
    limits (-90.0 90.0)
           (-45.0 45.0)
  end
  begin
     id 22 
     name lfingers
     direction 1 -4.48955e-011 4.59726e-026   
     length 0.462289   
     axis -2.93383e-014 90 90   XYZ
    dof rx
    limits (0.0 90.0)
  end
  begin
     id 23
     name lthumb
     direction 0.707107 -6.34866e-011 0.707107   
     length 0.663757   
     axis -90 45 5.69224e-014   XYZ
    dof rx rz
    limits (-45.0 45.0)
           (-45.0 45.0)
  end
  begin
     id 24 
     name rclavicle
     direction -0.981571 0.157346 0.108443   
     length 3.35257  
     axis 0 0 0   XYZ 
    dof ry rz
    limits (-10.0 20.0)
           (-20.0 0.0)
  end
  begin
     id 25 
     name rhumerus
     direction -1 -4.48967e-011 8.58308e-029  
     length 4.67018   
     axis 180 30 90   XYZ
    dof rx ry rz
    limits (-90.0 60.0)
           (-90.0 90.0)
           (-90.0 90.0)
  end
  begin
     id 26 
     name rradius
     direction -1 -4.48958e-011 4.52548e-027   
     length 2.65534   
     axis 180 30 90   XYZ
    dof rx
    limits (-10.0 170.0)
  end
  begin
     id 27 
     name rwrist
     direction -1 -4.48977e-011 1.14952e-026   
     length 1.32767   
     axis -6.29373e-015 -90 -90   XYZ
    dof ry
    limits (-180.0 0.0)
  end
  begin
     id 28
     name rhand
     direction -1 -4.48924e-011 2.29804e-026   
     length 0.594069   
     axis -1.46689e-014 -90 -90   XYZ
    dof rx rz
    limits (-90.0 90.0)
           (-45.0 45.0)
  end
  begin
     id 29
     name rfingers
     direction -1 -4.48998e-011 4.59888e-026   
     length 0.478954   
     axis -2.93383e-014 -90 -90   XYZ
    dof rx
    limits (0.0 90.0)
  end
  begin
     id 30
     name rthumb
     direction -0.707107 -6.34933e-011 0.707107   
     length 0.687685   
     axis -90 -45 -5.69224e-014   XYZ
    dof rx rz
    limits (-45.0 45.0)
           (-45.0 45.0)
  end
:hierarchy
  begin
    root lhipjoint rhipjoint lowerback
    lhipjoint lfemur
    lfemur ltibia
    ltibia lfoot
    lfoot ltoes
    rhipjoint rfemur
    rfemur rtibia
    rtibia rfoot
    rfoot rtoes
    lowerback upperback
    upperback thorax
    thorax lowerneck lclavicle rclavicle
    lowerneck upperneck
    upperneck head
    lclavicle lhumerus
    lhumerus lradius
    lradius lwrist
    lwrist lhand lthumb
    lhand lfingers
    rclavicle rhumerus
    rhumerus rradius
    rradius rwrist
    rwrist rhand rthumb
    rhand rfingers
  end

#!OML:ASF E:\pregnant2\Project 1\Capture day 1\Session 1\pregnant2.ASF
:FULLY-SPECIFIED
:DEGREES
811
root -3.12587 3.87935 17.2749 -1.58567 5.4843 -22.4769
lowerback 3.06811 0.453843 -0.450166
upperback -4.88216 0.90293 5.1226
thorax -6.92863 0.633992 5.57029
lowerneck -18.1196 -5.19931 -10.3137
upperneck 39.221 -3.46316 -1.03945
head 17.8899 -3.13853 0.615008
rclavicle -2.18663e-015 8.11041e-014
rhumerus -80.8948 6.5839 -91.0097
rradius 30.099
rwrist -2.9025
rhand -8.63063 -18.3419
rfingers 7.12502
rthumb 17.302 -47.5917
lclavicle -2.18663e-015 8.11041e-014
lhumerus -65.8114 2.4252 83.4147
lradius 32.8944
lwrist 11.2413
lhand -39.1179 80.9981
lfingers 7.12502
lthumb -12.1174 249.373
rfemur -136.292 -24.0118 44.2163
rtibia 142.793
rfoot -7.46694 7.16506
rtoes -3.34756
lfemur -135.405 -14.1275 -47.8079
ltibia 134.998
lfoot -5.3846 19.1343
ltoes 30.7071
812
root -3.1353 3.87453 17.2656 -1.71772 5.38308 -22.3069
lowerback 2.9723 0.425069 -0.483621
upperback -4.9033 0.861528 5.14191
thorax -6.89256 0.615538 5.61388
lowerneck -18.0845 -5.15796 -10.1916
upperneck 39.2833 -3.47671 -0.99026
head 17.9105 -3.12102 0.61425
rclavicle -8.34896e-015 -4.45278e-014
rhumerus -80.8135 6.19153 -90.9303
rradius 30.0125
rwrist -3.09698
rhand -8.98859 -18.7574
rfingers 7.12502
rthumb 16.9574 -48.0371
lclavicle -8.34896e-015 -4.45278e-014
lhumerus -65.9038 2.39422 83.5464
lradius 32.874
lwrist 11.4456
lhand -39.1173 81.0419
lfingers 7.12502
lthumb -12.1167 249.329
rfemur -136.292 -23.9328 44.1091
rtibia 142.787
rfoot -7.33952 7.19547
rtoes -3.4413
lfemur -135.35 -13.9972 -47.8974
ltibia 135.013
lfoot -5.33325 19.1334
ltoes 30.6408
813
root -3.14482 3.86973 17.2562 -1.85208 5.29137 -22.1335
lowerback 2.87496 0.396052 -0.514083
upperback -4.92696 0.819605 5.15293
thorax -6.85791 0.596434 5.64682
lowerneck -18.0334 -5.11664 -10.0598
upperneck 39.3331 -3.50086 -0.931424
head 17.92 -3.10447 0.614755
rclavicle -8.74653e-015 -1.59028e-015
rhumerus -80.7229 5.80458 -90.8399
rradius 29.9539
rwrist -3.3073
rhand -9.39056 -19.2556
rfingers 7.12502
rthumb 16.5705 -48.5682
lclavicle -8.74653e-015 -1.59028e-015
lhumerus -65.9942 2.34066 83.6797
lradius 32.8463
lwrist 11.6629
lhand -39.1172 81.0754
lfingers 7.12502
lthumb -12.1167 249.295
rfemur -136.302 -23.8722 44.0164
rtibia 142.778
rfoot -7.19096 7.2304
rtoes -3.44914
lfemur -135.285 -13.8674 -47.9889
ltibia 135.015
lfoot -5.21781 19.1149
ltoes 30.4995
814
root -3.15457 3.86486 17.2467 -1.98595 5.21068 -21.96
lowerback 2.76765 0.364939 -0.544603
upperback -4.95089 0.774599 5.16245
thorax -6.81734 0.575643 5.6783
lowerneck -17.9657 -5.07456 -9.92398
upperneck 39.362 -3.53077 -0.866121
head 17.9134 -3.08808 0.617187
rclavicle -5.96354e-015 -2.54444e-014
rhumerus -80.6235 5.43855 -90.7592
rradius 29.9183
rwrist -3.53738
rhand -9.85486 -19.8431
rfingers 7.12502
rthumb 16.1234 -49.1924
lclavicle -5.96354e-015 -2.54444e-014
lhumerus -66.0777 2.26412 83.8317
lradius 32.8092
lwrist 11.9058
lhand -39.1164 81.1164
lfingers 7.12502
lthumb -12.1159 249.254
rfemur -136.326 -23.8298 43.9427
rtibia 142.771
rfoot -7.02031 7.26789
rtoes -3.38848
lfemur -135.216 -13.7462 -48.075
ltibia 135.01
lfoot -5.07151 19.0909
ltoes 30.3869
815
root -3.16455 3.86002 17.2371 -2.1203 5.13738 -21.7849
lowerback 2.65184 0.33374 -0.5747
upperback -4.97311 0.729109 5.16881
thorax -6.7698 0.55432 5.70595
lowerneck -17.896 -5.03248 -9.78331
upperneck 39.3824 -3.56449 -0.796735
head 17.9015 -3.07159 0.620089
rclavicle -1.37161e-014 2.70347e-014
rhumerus -80.5149 5.08826 -90.7082
rradius 29.8967
rwrist -3.79583
rhand -10.4432 -20.514
rfingers 7.12502
rthumb 15.5569 -49.9083
lclavicle -1.37161e-014 2.70347e-014
lhumerus -66.1511 2.1635 83.9982
lradius 32.7607
lwrist 12.1699
lhand -39.1076 81.1103
lfingers 7.12502
lthumb -12.1074 249.26
rfemur -136.358 -23.802 43.8846
rtibia 142.765
rfoot -6.84532 7.3081
rtoes -3.2765
lfemur -135.151 -13.6293 -48.1587
ltibia 134.997
lfoot -4.89533 19.0619
ltoes 30.2917
816
root -3.175 3.85511 17.2278 -2.25251 5.06795 -21.6125
lowerback 2.52323 0.30283 -0.605792
upperback -4.9946 0.683944 5.17903
thorax -6.71419 0.533174 5.73804
lowerneck -17.8204 -4.99124 -9.64656
upperneck 39.3945 -3.59831 -0.7279
head 17.8835 -3.05556 0.623625
rclavicle -1.09332e-014 -1.59028e-015
rhumerus -80.4044 4.75935 -90.6873
rradius 29.8898
rwrist -4.07856
rhand -11.1458 -21.3196
rfingers 7.12502
rthumb 14.88 -50.7652
lclavicle -1.09332e-014 -1.59028e-015
lhumerus -66.2178 2.04713 84.1845
lradius 32.7073
lwrist 12.4529
lhand -39.1103 81.114
lfingers 7.12502
lthumb -12.11 249.256
rfemur -136.397 -23.7766 43.837
rtibia 142.761
rfoot -6.67178 7.34793
rtoes -3.17456
lfemur -135.095 -13.519 -48.2331
ltibia 134.984
lfoot -4.69265 19.0318
ltoes 30.1992
817
root -3.18581 3.85011 17.2186 -2.38069 5.00204 -21.4435
lowerback 2.38349 0.272019 -0.636041
upperback -5.01796 0.639161 5.19388
thorax -6.65423 0.512266 5.77441
lowerneck -17.7419 -4.95009 -9.51379
upperneck 39.4047 -3.6288 -0.663385
head 17.8638 -3.03934 0.626576
rclavicle 1.21259e-014 -1.59028e-015
rhumerus -80.2942 4.45068 -90.6917
rradius 29.8936
rwrist -4.38181
rhand -11.9377 -22.2381
rfingers 7.12502
rthumb 14.1171 -51.7385
lclavicle 1.21259e-014 -1.59028e-015
lhumerus -66.2807 1.91896 84.3885
lradius 32.6496
lwrist 12.7493
lhand -39.1133 81.1284
lfingers 7.12502
lthumb -12.1129 249.242
rfemur -136.441 -23.7534 43.8021
rtibia 142.758
rfoot -6.5022 7.38706
rtoes -3.08665
lfemur -135.052 -13.413 -48.2985
ltibia 134.968
lfoot -4.46178 18.995
ltoes 30.1047
818
root -3.19685 3.84517 17.2093 -2.51173 4.93818 -21.2811
lowerback 2.24414 0.241532 -0.662386
upperback -5.04328 0.59565 5.21605
thorax -6.59681 0.492087 5.81622
lowerneck -17.66 -4.90931 -9.3858
upperneck 39.4177 -3.65388 -0.608263
head 17.8447 -3.02308 0.62708
rclavicle 1.37161e-014 2.54444e-014
rhumerus -80.1878 4.16362 -90.7115
rradius 29.9048
rwrist -4.68875
rhand -12.7876 -23.2343
rfingers 7.12502
rthumb 13.2979 -52.79
lclavicle 1.37161e-014 2.54444e-014
lhumerus -66.342 1.78598 84.6083
lradius 32.5869
lwrist 13.0518
lhand -39.1219 81.1581
lfingers 7.12502
lthumb -12.1212 249.213
rfemur -136.478 -23.7319 43.7754
rtibia 142.755
rfoot -6.3385 7.42327
rtoes -3.0225
lfemur -135.011 -13.3096 -48.3556
ltibia 134.951
lfoot -4.20939 18.9583
ltoes 29.9933
819
root -3.20802 3.84001 17.2003 -2.64417 4.87799 -21.1253
lowerback 2.09943 0.210007 -0.681584
upperback -5.07094 0.551573 5.24501
thorax -6.53873 0.471485 5.86113
lowerneck -17.5741 -4.86859 -9.26344
upperneck 39.4368 -3.67348 -0.560939
head 17.828 -3.00673 0.626005
rclavicle 1.92821e-014 1.11319e-014
rhumerus -80.0805 3.89029 -90.7094
rradius 29.9208
rwrist -4.99281
rhand -13.5933 -24.2689
rfingers 7.12502
rthumb 12.5212 -53.8738
lclavicle 1.92821e-014 1.11319e-014
lhumerus -66.4054 1.64793 84.8453
lradius 32.5197
lwrist 13.3609
lhand -39.1202 81.1808
lfingers 7.12502
lthumb -12.1196 249.19
rfemur -136.516 -23.7181 43.762
rtibia 142.754
rfoot -6.18028 7.46176
rtoes -2.96542
lfemur -134.974 -13.2158 -48.3979
ltibia 134.94
lfoot -3.94901 18.9245
ltoes 29.8875
820
root -3.2192 3.83472 17.1914 -2.77856 4.81957 -20.9748
lowerback 1.9565 0.177803 -0.69454
upperback -5.10427 0.507554 5.27951
thorax -6.48775 0.450979 5.90843
lowerneck -17.4788 -4.8278 -9.14668
upperneck 39.4642 -3.68903 -0.519324
head 17.8136 -2.99065 0.62412
rclavicle -1.15295e-014 -4.29375e-014
rhumerus -79.9751 3.62579 -90.6678
rradius 29.9315
rwrist -5.26108
rhand -14.3157 -25.271
rfingers 7.12502
rthumb 11.8247 -54.9171
lclavicle -1.15295e-014 -4.29375e-014
lhumerus -66.4776 1.51107 85.0927
lradius 32.4543
lwrist 13.6707
lhand -39.1255 81.2313
lfingers 7.12502
lthumb -12.1247 249.14
rfemur -136.55 -23.7075 43.7528
rtibia 142.756
rfoot -6.02698 7.49994
rtoes -2.91693
lfemur -134.938 -13.1274 -48.4289
ltibia 134.929
lfoot -3.69801 18.8975
ltoes 29.7819
821
root -3.23036 3.82929 17.1825 -2.91399 4.76142 -20.8258
lowerback 1.81308 0.144926 -0.704022
upperback -5.13936 0.46306 5.31724
thorax -6.43831 0.430203 5.95714
lowerneck -17.3834 -4.78874 -9.03449
upperneck 39.5008 -3.70417 -0.479965
head 17.8046 -2.97563 0.62187
rclavicle -1.31198e-014 4.13472e-014
rhumerus -79.8625 3.37038 -90.5844
rradius 29.9272
rwrist -5.48617
rhand -14.9572 -26.1888
rfingers 7.12502
rthumb 11.206 -55.8695
lclavicle -1.31198e-014 4.13472e-014
lhumerus -66.5554 1.38784 85.3315
lradius 32.397
lwrist 13.9645
lhand -39.117 81.2329
lfingers 7.12502
lthumb -12.1165 249.138
rfemur -136.583 -23.698 43.744
rtibia 142.758
rfoot -5.87397 7.53983
rtoes -2.84872
lfemur -134.903 -13.0437 -48.4483
ltibia 134.922
lfoot -3.45717 18.8766
ltoes 29.6828
822
root -3.24145 3.82374 17.1737 -3.04751 4.70527 -20.673
lowerback 1.66517 0.110565 -0.717966
upperback -5.17675 0.416524 5.35838
thorax -6.38857 0.408768 6.01211
lowerneck -17.2859 -4.75248 -8.93027
upperneck 39.5458 -3.72033 -0.441157
head 17.8005 -2.96251 0.620397
rclavicle -1.59028e-014 -5.40694e-014
rhumerus -79.7422 3.12353 -90.453
rradius 29.8926
rwrist -5.65924
rhand -15.5352 -26.9801
rfingers 7.12502
rthumb 10.6485 -56.6902
lclavicle -1.59028e-014 -5.40694e-014
lhumerus -66.6423 1.28671 85.5569
lradius 32.3551
lwrist 14.2381
lhand -39.1058 81.223
lfingers 7.12502
lthumb -12.1057 249.147
rfemur -136.625 -23.6928 43.7317
rtibia 142.764
rfoot -5.71869 7.58612
rtoes -2.76935
lfemur -134.864 -12.9666 -48.4578
ltibia 134.915
lfoot -3.23832 18.8631
ltoes 29.6114
823
root -3.25254 3.81822 17.1648 -3.17697 4.64416 -20.5187
lowerback 1.51484 0.0771407 -0.734441
upperback -5.2173 0.371338 5.40184
thorax -6.34099 0.388292 6.07083
lowerneck -17.1909 -4.72018 -8.8339
upperneck 39.602 -3.74062 -0.398909
head 17.8042 -2.952 0.620757
rclavicle 4.37326e-015 -2.22639e-014
rhumerus -79.616 2.88194 -90.2838
rradius 29.8154
rwrist -5.79855
rhand -16.1013 -27.6392
rfingers 7.12502
rthumb 10.1024 -57.3767
lclavicle 4.37326e-015 -2.22639e-014
lhumerus -66.7392 1.20859 85.7615
lradius 32.3313
lwrist 14.4868
lhand -39.0793 81.1567
lfingers 7.12502
lthumb -12.0802 249.212
rfemur -136.665 -23.6748 43.7114
rtibia 142.768
rfoot -5.56132 7.62763
rtoes -2.67483
lfemur -134.835 -12.8821 -48.4576
ltibia 134.904
lfoot -3.03904 18.8411
ltoes 29.5578
824
root -3.26373 3.81284 17.1559 -3.30093 4.57588 -20.3627
lowerback 1.35787 0.0463997 -0.754693
upperback -5.2613 0.32974 5.44779
thorax -6.29369 0.369936 6.13406
lowerneck -17.0908 -4.6934 -8.74839
upperneck 39.6651 -3.76853 -0.350508
head 17.8117 -2.94549 0.624271
rclavicle 9.54166e-015 -1.43125e-014
rhumerus -79.4953 2.64012 -90.0823
rradius 29.692
rwrist -5.93484
rhand -16.6971 -28.2284
rfingers 7.12502
rthumb 9.52765 -57.993
lclavicle 9.54166e-015 -1.43125e-014
lhumerus -66.8459 1.14491 85.9551
lradius 32.3252
lwrist 14.7222
lhand -39.0638 81.08
lfingers 7.12502
lthumb -12.0651 249.288
rfemur -136.704 -23.6391 43.6828
rtibia 142.772
rfoot -5.40125 7.66298
rtoes -2.58379
lfemur -134.817 -12.7884 -48.445
ltibia 134.891
lfoot -2.86609 18.8088
ltoes 29.5286
825
root -3.27484 3.80758 17.1468 -3.41718 4.50491 -20.2095
lowerback 1.19395 0.0180503 -0.769833
upperback -5.30955 0.291684 5.49429
thorax -6.24723 0.353186 6.1946
lowerneck -16.9895 -4.67273 -8.67317
upperneck 39.7355 -3.80658 -0.291703
head 17.8245 -2.94328 0.632224
rclavicle 2.70347e-014 -6.67916e-014
rhumerus -79.3925 2.39191 -89.8669
rradius 29.5243
rwrist -6.09806
rhand -17.4119 -28.7705
rfingers 7.12502
rthumb 8.83785 -58.5654
lclavicle 2.70347e-014 -6.67916e-014
lhumerus -66.9586 1.0825 86.1473
lradius 32.3338
lwrist 14.9531
lhand -39.0565 81.0205
lfingers 7.12502
lthumb -12.0582 249.347
rfemur -136.746 -23.5922 43.6564
rtibia 142.771
rfoot -5.24234 7.69373
rtoes -2.52204
lfemur -134.813 -12.6853 -48.4169
ltibia 134.869
lfoot -2.70071 18.7498
ltoes 29.4884
